<?xml version="1.0" standalone="no"?>
<!DOCTYPE svg PUBLIC "-//W3C//DTD SVG 20010904//EN"
 "http://www.w3.org/TR/2001/REC-SVG-20010904/DTD/svg10.dtd">
<svg version="1.0" xmlns="http://www.w3.org/2000/svg"
 width="1170.000000pt" height="1160.000000pt" viewBox="0 0 1170.000000 1160.000000"
 preserveAspectRatio="xMidYMid meet">
<metadata>
Created by potrace 1.16, written by Peter Selinger 2001-2019
</metadata>
<g transform="translate(0.000000,1160.000000) scale(0.100000,-0.100000)"
fill="#000000" stroke="none">
<path d="M0 5800 l0 -5800 5850 0 5850 0 0 5800 0 5800 -5850 0 -5850 0 0
-5800z m4718 4129 c83 -39 165 -79 307 -152 185 -94 324 -157 346 -157 11 0
37 7 57 16 68 30 255 116 337 154 33 15 86 39 118 54 31 14 81 37 110 51 30
14 59 25 64 25 6 0 18 -21 28 -47 10 -27 31 -75 47 -107 15 -33 28 -63 28 -67
0 -4 13 -36 29 -71 51 -111 68 -151 106 -243 21 -49 46 -110 57 -135 46 -102
66 -147 78 -180 7 -19 25 -63 41 -97 16 -34 29 -69 29 -77 0 -9 4 -16 10 -16
5 0 13 -12 16 -27 4 -16 27 -69 51 -119 l45 -92 106 -50 c189 -90 284 -133
512 -237 179 -81 213 -98 245 -118 30 -19 28 -19 -240 -13 -148 4 -306 8 -350
11 -45 2 -86 0 -93 -4 -14 -8 -6 -41 10 -41 5 0 44 -26 86 -57 191 -143 328
-297 403 -451 35 -74 43 -72 -263 -72 -150 0 -279 -4 -287 -9 -10 -7 -16 -49
-22 -163 -4 -84 -11 -174 -14 -200 -9 -74 5 -80 210 -93 44 -3 96 -7 115 -9
19 -3 90 -7 157 -11 70 -4 129 -12 139 -20 16 -11 16 -14 0 -45 -9 -18 -16
-43 -16 -56 0 -12 -4 -24 -9 -26 -5 -1 -30 -66 -56 -143 -26 -77 -58 -167 -71
-200 -14 -33 -29 -69 -33 -80 -35 -85 -41 -95 -63 -96 -279 -6 -2968 -13
-2974 -7 -3 4 -101 245 -166 408 -28 69 -54 129 -59 134 -5 6 -9 17 -9 26 0 9
-11 40 -25 68 -14 29 -25 58 -25 65 0 7 -4 17 -9 23 -4 5 -20 40 -34 77 -22
58 -23 69 -11 74 17 6 213 -1 486 -18 98 -6 185 -8 194 -5 18 7 16 80 -6 201
-14 80 -35 105 -86 105 -78 0 -178 76 -220 169 -54 115 -61 142 -76 273 -11
107 -11 114 12 180 18 52 21 71 12 80 -8 8 -65 13 -159 15 -82 1 -182 5 -223
7 -41 3 -83 5 -92 5 -28 1 -21 20 10 27 15 4 43 15 62 25 86 43 147 69 162 69
9 0 19 4 22 9 3 4 98 48 211 97 114 49 214 96 224 105 12 12 44 125 101 355
45 187 96 391 113 454 16 63 32 131 34 150 2 19 8 44 13 55 10 25 36 122 51
195 15 74 17 80 24 80 4 0 36 -14 73 -31z m1149 -4171 c123 -39 230 -131 288
-246 36 -72 65 -206 75 -350 16 -220 22 -276 32 -295 5 -9 34 -31 64 -48 63
-36 78 -56 59 -82 -6 -9 -17 -17 -22 -17 -5 0 -18 -9 -28 -20 -10 -11 -24 -20
-31 -20 -7 0 -18 -8 -23 -18 -10 -19 -6 -161 9 -306 12 -116 -4 -285 -32 -341
-67 -129 -179 -217 -324 -251 -215 -50 -451 72 -552 285 -32 66 -37 88 -48
215 -7 77 -13 168 -14 201 -4 175 -11 192 -96 235 -24 13 -49 28 -54 35 -17
21 1 50 50 80 27 17 53 40 59 52 7 15 4 98 -8 271 -23 311 -18 346 65 469 48
71 147 146 214 161 86 19 243 14 317 -10z m1617 -9 c24 -6 54 -21 66 -34 24
-26 31 -84 65 -584 9 -128 21 -241 27 -251 7 -10 38 -33 70 -51 90 -51 88 -69
-12 -133 l-35 -22 1 -104 c0 -95 19 -420 29 -495 2 -16 7 -83 11 -147 l7 -118
-36 -15 c-41 -17 -191 -21 -230 -6 -33 13 -47 58 -47 147 0 39 -7 132 -15 206
-13 124 -35 406 -55 713 -25 378 -38 480 -66 523 -26 40 -77 54 -180 50 -144
-5 -144 -7 -124 -303 18 -259 20 -280 30 -390 5 -60 17 -213 25 -340 9 -126
20 -271 25 -322 6 -50 10 -129 10 -174 0 -116 -4 -119 -142 -119 -60 0 -117 4
-127 10 -33 17 -33 18 -60 420 -32 475 -27 452 -124 505 -36 19 -57 37 -57 48
0 10 21 32 47 50 26 17 55 40 66 51 22 20 22 -6 -3 311 -25 321 -30 385 -36
444 -4 52 4 106 20 122 4 5 295 14 529 17 179 1 293 -2 321 -9z m-2622 -17
c11 -11 1 -47 -42 -147 -10 -22 -30 -69 -45 -105 -15 -36 -33 -78 -40 -95 -8
-16 -37 -86 -66 -155 -28 -69 -62 -147 -74 -175 -49 -107 -47 -119 50 -315 93
-189 141 -288 230 -475 32 -66 90 -187 130 -270 86 -177 93 -200 66 -215 -11
-5 -81 -10 -155 -10 l-136 0 -40 36 c-22 20 -40 40 -40 44 0 7 -21 54 -115
255 -156 333 -176 362 -237 327 -19 -11 -30 -29 -38 -64 -7 -27 -10 -54 -7
-62 3 -7 8 -76 11 -152 4 -77 12 -180 18 -229 10 -79 9 -94 -6 -123 l-17 -33
-117 3 c-114 3 -117 4 -128 28 -7 14 -15 77 -18 140 -4 63 -11 165 -16 225 -5
61 -14 175 -20 255 -14 179 -16 200 -25 222 -4 10 -33 32 -64 48 -57 30 -87
62 -76 81 4 5 31 25 60 44 35 22 57 44 61 60 8 32 3 124 -27 519 l-23 309 23
18 c19 16 40 19 120 19 53 0 101 -4 107 -8 25 -16 35 -57 44 -175 19 -251 29
-287 83 -287 21 0 77 46 77 63 0 20 163 376 178 390 10 9 35 18 57 20 70 8
245 1 257 -11z"/>
<path d="M5540 8255 c-16 -19 0 -83 41 -165 28 -57 102 -138 148 -161 14 -8
28 -17 31 -20 3 -3 28 -14 55 -25 38 -14 76 -19 155 -19 93 0 112 3 162 27 74
35 142 104 179 181 33 72 43 155 19 167 -20 11 -386 30 -423 23 -22 -4 -33
-16 -48 -49 -47 -110 -169 -108 -222 4 -19 39 -27 47 -53 50 -19 2 -36 -3 -44
-13z"/>
<path d="M5655 5456 c-40 -18 -73 -56 -85 -95 -9 -31 -3 -169 19 -436 6 -66
13 -160 16 -210 19 -276 40 -490 51 -520 16 -41 75 -93 118 -104 83 -21 155
24 181 113 13 44 13 71 -1 235 -8 103 -17 213 -20 246 -12 162 -26 353 -34
470 -10 143 -18 187 -46 234 -37 62 -137 96 -199 67z"/>
</g>
</svg>
